<svg xmlns="http://www.w3.org/2000/svg" viewBox="0 0 512 512" fill="none">
  <defs>
    <linearGradient id="bg" x1="64" x2="448" y1="48" y2="464" gradientUnits="userSpaceOnUse">
      <stop stop-color="#82E0FF"/>
      <stop offset=".5" stop-color="#5A86FF"/>
      <stop offset="1" stop-color="#334FD1"/>
    </linearGradient>
    <linearGradient id="bookLeft" x1="106" x2="248" y1="150" y2="372" gradientUnits="userSpaceOnUse">
      <stop stop-color="#FFF7ED"/>
      <stop offset="1" stop-color="#E5EDFF"/>
    </linearGradient>
    <linearGradient id="bookRight" x1="260" x2="405" y1="143" y2="372" gradientUnits="userSpaceOnUse">
      <stop stop-color="#FFFFFF"/>
      <stop offset="1" stop-color="#DCE9FF"/>
    </linearGradient>
    <linearGradient id="spine" x1="233" x2="279" y1="118" y2="388" gradientUnits="userSpaceOnUse">
      <stop stop-color="#FF8E6C"/>
      <stop offset="1" stop-color="#FF615D"/>
    </linearGradient>
    <linearGradient id="pill" x1="167" x2="309" y1="253" y2="378" gradientUnits="userSpaceOnUse">
      <stop stop-color="#FFE17D"/>
      <stop offset=".45" stop-color="#FFB36B"/>
      <stop offset="1" stop-color="#FF7481"/>
    </linearGradient>
    <linearGradient id="syringeBarrel" x1="280" x2="402" y1="194" y2="311" gradientUnits="userSpaceOnUse">
      <stop stop-color="#FFFFFF"/>
      <stop offset="1" stop-color="#D9E6FF"/>
    </linearGradient>
    <linearGradient id="syringeLiquid" x1="301" x2="359" y1="220" y2="272" gradientUnits="userSpaceOnUse">
      <stop stop-color="#7AE3FF"/>
      <stop offset="1" stop-color="#46B6FF"/>
    </linearGradient>
    <filter id="shadow" width="394" height="366" x="65" y="94" color-interpolation-filters="sRGB" filterUnits="userSpaceOnUse">
      <feFlood flood-opacity="0" result="BackgroundImageFix"/>
      <feGaussianBlur in="BackgroundImageFix" stdDeviation="18"/>
      <feColorMatrix in="SourceAlpha" result="hardAlpha" values="0 0 0 0 0 0 0 0 0 0 0 0 0 0 0 0 0 0 127 0"/>
      <feOffset dy="14"/>
      <feGaussianBlur stdDeviation="20"/>
      <feColorMatrix values="0 0 0 0 0.137255 0 0 0 0 0.211765 0 0 0 0 0.541176 0 0 0 0.28 0"/>
      <feBlend in2="BackgroundImageFix" result="effect1_dropShadow_0_1"/>
      <feBlend in="SourceGraphic" in2="effect1_dropShadow_0_1" result="shape"/>
    </filter>
  </defs>

  <rect width="512" height="512" rx="128" fill="url(#bg)"/>
  <circle cx="385" cy="118" r="64" fill="#fff" fill-opacity=".15"/>
  <circle cx="112" cy="410" r="76" fill="#fff" fill-opacity=".12"/>

  <g filter="url(#shadow)">
    <path fill="url(#bookLeft)" d="M112 168c0-30.928 25.072-56 56-56h72c18.778 0 34 15.222 34 34v226c-12.13-13.258-30.334-22-50.58-22H168c-30.928 0-56-25.072-56-56V168Z"/>
    <path fill="url(#bookRight)" d="M274 146c0-18.778 15.222-34 34-34h36c30.928 0 56 25.072 56 56v126c0 30.928-25.072 56-56 56h-55.42c-20.246 0-38.45 8.742-50.58 22V146Z"/>
    <rect width="54" height="260" x="229" y="116" fill="url(#spine)" rx="24"/>
    <path stroke="#C7D7FF" stroke-linecap="round" stroke-width="10" d="M145 196h74M145 228h58M145 260h66"/>
    <path stroke="#BCD0FF" stroke-linecap="round" stroke-width="10" d="M298 186h70M298 218h54M298 250h63"/>

    <g transform="rotate(-16 212 315)">
      <rect width="176" height="72" x="124" y="279" fill="#fff" rx="36"/>
      <path fill="url(#pill)" d="M212 279h52c19.882 0 36 16.118 36 36s-16.118 36-36 36h-52v-72Z"/>
      <path stroke="#FF8A6D" stroke-linecap="round" stroke-width="10" d="M212 288v54"/>
      <circle cx="155" cy="315" r="12" fill="#C5D8FF"/>
      <circle cx="183" cy="315" r="12" fill="#C5D8FF"/>
    </g>

    <g transform="rotate(22 351 229)">
      <rect width="128" height="34" x="274" y="212" fill="url(#syringeBarrel)" rx="14"/>
      <rect width="62" height="22" x="292" y="218" fill="url(#syringeLiquid)" rx="10"/>
      <rect width="22" height="50" x="259" y="204" fill="#EEF4FF" rx="8"/>
      <rect width="52" height="10" x="244" y="224" fill="#DCE8FF" rx="5"/>
      <path stroke="#8AA7FF" stroke-linecap="round" stroke-width="6" d="M321 216v26M338 216v26M355 216v26M372 216v26"/>
      <path stroke="#B7C9FF" stroke-linecap="round" stroke-width="8" d="M401 229h23"/>
      <path stroke="#C8D7FF" stroke-linecap="round" stroke-width="8" d="M425 229h11"/>
      <path stroke="#F4FBFF" stroke-linecap="round" stroke-width="4" d="M301 222h42"/>
      <path stroke="#8BA0C8" stroke-linecap="round" stroke-width="4" d="M438 229h24"/>
      <path stroke="#8BA0C8" stroke-linecap="round" stroke-width="3" d="m460 229 18-9"/>
    </g>
  </g>
</svg>
